# xmcd
#
# Track frame offsets:
#	150
#	18283
#	35871
#	49814
#	63002
#	76539
#	86011
#	95549
#	106304
#	116650
#
# Disc length: 1726 seconds
#
# Revision: 0
# Processed by: cddbd v1.5.1PL2 Copyright (c) Steve Scherf et al.
# Submitted via: dBpowerAMP V4.0
#
DISCID=7306bc0a
DTITLE=Freddy Fender  - Greatest Hits
DYEAR=2002
DGENRE=Country
TTITLE0=Secret Love
TTITLE1=Jambalaya
TTITLE2=The Rains Came
TTITLE3=Mexican Rose
TTITLE4=Whiskey River
TTITLE5=Mathilda
TTITLE6=Running Back
TTITLE7=A Man Can Cry
TTITLE8=Crazy Baby
TTITLE9=Silver Wings
EXTD=
EXTT0=
EXTT1=
EXTT2=
EXTT3=
EXTT4=
EXTT5=
EXTT6=
EXTT7=
EXTT8=
EXTT9=
PLAYORDER=
